<?xml version="1.0" standalone="no"?>
<!DOCTYPE svg PUBLIC "-//W3C//DTD SVG 20010904//EN"
 "http://www.w3.org/TR/2001/REC-SVG-20010904/DTD/svg10.dtd">
<svg version="1.0" xmlns="http://www.w3.org/2000/svg"
 width="225.000000pt" height="225.000000pt" viewBox="0 0 225.000000 225.000000"
 preserveAspectRatio="xMidYMid meet">

<g transform="translate(0.000000,225.000000) scale(0.100000,-0.100000)"
fill="#000000" stroke="none">
<path d="M0 1125 l0 -1125 1125 0 1125 0 0 1125 0 1125 -1125 0 -1125 0 0
-1125z m1280 145 c49 -99 90 -182 90 -185 0 -3 -7 -5 -15 -5 -9 0 -44 58 -92
155 -43 85 -80 155 -83 155 -3 0 -70 -133 -150 -295 -108 -219 -150 -295 -162
-295 -10 0 -18 2 -18 5 0 16 322 645 330 645 5 0 50 -81 100 -180z m-680 155
c0 -13 -29 -15 -204 -15 l-204 0 -5 -192 c-3 -106 -5 -242 -4 -303 2 -97 0
-110 -15 -113 -17 -3 -18 17 -18 317 l0 321 225 0 c193 0 225 -2 225 -15z
m150 -305 c0 -278 -2 -320 -15 -320 -13 0 -15 42 -15 320 0 278 2 320 15 320
13 0 15 -42 15 -320z m1243 291 c89 -44 128 -143 92 -236 -26 -70 -116 -125
-202 -125 -53 0 -35 22 28 35 66 13 89 26 123 66 34 40 37 126 6 177 -36 58
-93 76 -257 80 l-143 4 0 -307 c0 -272 -2 -306 -16 -303 -8 2 -15 6 -15 11 1
4 1 147 1 318 l0 311 168 -4 c152 -3 171 -5 215 -27z m-1513 -296 c0 -12 -18
-15 -100 -15 -82 0 -100 3 -100 15 0 12 18 15 100 15 82 0 100 -3 100 -15z
m990 -225 c45 -90 45 -90 25 -90 -8 0 -32 34 -55 80 -45 90 -45 90 -25 90 8 0
32 -34 55 -80z"/>
</g>
</svg>
